<svg xmlns="http://www.w3.org/2000/svg" xml:space="preserve" id="Calque_1" width="1048.923" height="884.591" x="0" y="0" version="1.1"><defs id="defs72"><path id="rect141823" d="M1150.384 2292.816h2107.888v701.887H1150.384z"/><path id="rect66775" d="M411.883 1261.611h815.347v181.929H411.883z"/><path id="rect60279" d="M253.02 1213.035h2209.72v583.658H253.02z"/><path id="rect141823-1" d="M1150.384 2292.816h2551.008v701.391H1150.384z"/><linearGradient id="SVGID_1_" x1="346.508" x2="248.692" y1="231.711" y2="62.289" gradientTransform="translate(-1031.714 -832.102)scale(7.14118)" gradientUnits="userSpaceOnUse"><stop id="stop4" offset="0" style="stop-color:#8f2a85"/><stop id="stop6" offset="1" style="stop-color:#2570b6"/></linearGradient></defs><style id="style2" type="text/css">.st1{fill:#fff}.st2{display:none;fill:none;stroke:#e62054;stroke-width:7.5;stroke-miterlimit:10}</style><rect id="rect1" width="1048.922" height="884.591" x="0" y="0" ry="57.691" style="fill:none;fill-opacity:0;stroke:none;stroke-width:7.14161;stroke-linecap:square;stroke-linejoin:round;stroke-dasharray:none"/><path id="path11" d="M237.266 380.612h-1.99l-36.48-10.613c-2.652-.663-4.642-3.316-4.642-6.632v-49.082c0-1.99 1.326-3.98 2.653-5.306 1.99-1.327 3.98-1.327 5.97-.663l36.48 13.265c2.652.663 4.642 3.316 4.642 5.97v46.428c0 1.99-.663 3.98-2.653 5.306-1.327.663-2.653 1.327-3.98 1.327M207.42 358.06l23.215 6.632V331.53l-23.215-8.623z" class="st1" style="fill:#fff;stroke-width:6.63268"/><path id="path13" d="M237.266 473.47h-1.326l-36.48-7.96c-3.316-.663-5.306-3.316-5.306-6.633v-49.081c0-1.99.663-3.98 2.653-5.307 1.327-1.326 3.98-1.99 5.97-1.326l36.48 9.286c2.652.663 5.305 3.316 5.305 6.632v47.756c0 1.99-.663 3.98-2.653 5.306-1.99.663-3.316 1.326-4.643 1.326M207.42 453.57l23.215 5.306v-34.49l-23.215-5.969z" class="st1" style="fill:#fff;stroke-width:6.63268"/><path id="path15" d="M297.624 487.398h-1.327l-36.48-8.623c-3.316-.663-5.306-3.316-5.306-6.632v-48.419c0-1.99.664-3.98 2.653-5.306 1.99-1.327 3.98-1.99 5.97-1.327l36.48 9.286c2.653.663 5.306 3.317 5.306 6.633v47.755c0 1.99-.664 3.98-2.653 5.306-1.99.664-3.317 1.327-4.643 1.327m-29.847-20.561 23.214 5.306v-34.49l-23.214-5.97z" class="st1" style="fill:#fff;stroke-width:6.63268"/><path id="path17" d="M381.859 466.173h-1.99l-43.113-14.592c-2.653-.663-3.98-3.316-3.98-5.306v-30.51c0-1.99.664-3.98 2.654-4.643 1.326-1.326 3.316-1.326 5.306-.663l43.112 15.918c1.99.663 3.98 3.317 3.98 5.306v29.184c0 1.99-.663 3.316-2.653 4.643-.663 0-1.99.663-3.316.663m-37.143-24.54 31.837 10.612V435l-31.837-11.94z" class="st1" style="fill:#fff;stroke-width:6.63268"/><path id="path19" d="M410.38 531.174h-1.327l-41.786-9.95c-2.653-.663-4.643-2.653-4.643-5.306v-31.173c0-1.99.663-3.317 1.99-4.643 1.326-1.327 3.316-1.327 5.306-.663l41.786 11.275c2.653.663 3.98 2.653 3.98 5.306v29.847c0 1.99-.664 3.317-1.99 4.643-.664 0-1.99.664-3.317.664m-35.817-20.562 30.51 7.296V500l-30.51-7.96z" class="st1" style="fill:#fff;stroke-width:6.63268"/><path id="path21" d="M297.624 399.183h-1.99l-37.143-9.949c-2.653-.663-4.643-3.316-4.643-6.632V333.52c0-1.99 1.327-3.98 2.653-5.306 1.99-1.327 3.98-1.327 5.97-.664l37.142 13.266c2.654.663 4.643 3.316 4.643 5.97v45.765c0 1.99-.663 3.98-2.653 5.306-1.326.663-2.653 1.326-3.98 1.326m-30.51-21.888 23.877 6.633v-32.5l-23.878-8.622z" class="st1" style="fill:#fff;stroke-width:6.63268"/><path id="path23" d="M462.777 537.806c-8.622 0-15.255-7.959-15.255-17.245s6.633-17.245 15.255-17.245 15.255 7.96 15.255 17.245-6.632 17.245-15.255 17.245m0-25.204c-3.316 0-5.97 3.316-5.97 7.96 0 4.642 2.654 7.958 5.97 7.958 3.317 0 5.97-3.316 5.97-7.959s-2.653-7.959-5.97-7.959" class="st1" style="fill:#fff;stroke-width:6.63268"/><path id="path25" d="M813.646 380.612c-1.327 0-2.653-.664-3.98-1.327-1.99-1.326-2.653-3.316-2.653-5.306V327.55c0-2.653 1.99-5.306 4.643-5.97l36.48-13.264c1.99-.664 3.98-.664 5.97.663s2.652 3.316 2.652 5.306v49.082c0 2.653-1.99 5.306-4.643 6.632l-36.48 10.613zm6.633-48.419v33.164l23.214-6.633v-34.49z" class="st1" style="fill:#fff;stroke-width:6.63268"/><path id="path27" d="M813.646 473.47c-1.327 0-2.653-.664-3.98-1.327-1.326-1.327-2.653-3.317-2.653-5.306V419.08c0-3.316 1.99-5.97 5.306-6.632l36.48-9.286c1.99-.663 3.98 0 5.97 1.326 1.326 1.327 2.652 3.317 2.652 5.307v49.081c0 3.317-1.99 5.97-5.306 6.633l-36.48 7.96zm6.633-49.083v34.49l23.214-5.306v-35.153z" class="st1" style="fill:#fff;stroke-width:6.63268"/><path id="path29" d="M753.952 487.398c-1.327 0-2.653-.663-3.98-1.327-1.326-1.326-2.653-3.316-2.653-5.306V433.01c0-3.316 1.99-5.97 5.306-6.633l36.48-9.286c1.99-.663 3.98 0 5.97 1.327 1.326 1.327 2.652 3.316 2.652 5.306v48.419c0 3.316-1.99 5.97-5.306 6.632l-36.48 8.623zm6.632-49.082v34.49L783.8 467.5v-34.49Z" class="st1" style="fill:#fff;stroke-width:6.63268"/><path id="path31" d="M669.054 466.173c-1.327 0-2.654-.663-3.317-1.326-1.326-1.327-2.653-2.653-2.653-4.643V431.02c0-2.653 1.327-4.643 3.98-5.306l43.775-15.918c1.99-.664 3.98-.664 5.307.663 1.326 1.326 2.653 2.653 2.653 4.643v30.51c0 2.653-1.327 4.643-3.98 5.306l-43.776 14.592c-.663.663-1.326.663-1.99.663M675.023 435v17.245l32.5-10.613v-17.908z" class="st1" style="fill:#fff;stroke-width:6.63268"/><path id="path33" d="M637.88 530.51c-1.327-1.326-1.99-2.653-1.99-4.643V496.02c0-2.653 1.99-4.643 3.98-5.306l41.786-11.275c1.99-.664 3.316 0 5.306.663 1.326 1.326 1.99 2.653 1.99 4.643v31.173c0 2.653-1.99 5.306-4.643 5.306l-41.786 9.95c-.663.663-3.98 0-4.643-.664m9.286-29.847v17.908l30.51-7.296v-19.234z" class="st1" style="fill:#fff;stroke-width:6.63268"/><path id="path35" d="M753.952 399.183c-1.327 0-2.653-.663-3.98-1.326-1.326-1.327-2.653-3.317-2.653-5.306v-45.766c0-2.653 1.99-5.306 4.643-5.97l36.48-13.265c1.99-.663 3.98-.663 5.97.664s2.652 3.316 2.652 5.306v49.082c0 3.316-1.99 5.306-4.643 6.632l-36.48 9.95zm6.632-47.755v32.5l23.215-6.633v-34.49z" class="st1" style="fill:#fff;stroke-width:6.63268"/><path id="path37" d="M588.798 537.806c-8.622 0-15.255-7.959-15.255-17.245s6.633-17.245 15.255-17.245 15.255 7.96 15.255 17.245-6.632 17.245-15.255 17.245m0-25.204c-3.316 0-5.97 3.316-5.97 7.96 0 4.642 2.654 7.958 5.97 7.958s5.97-3.316 5.97-7.959-2.654-7.959-5.97-7.959" class="st1" style="fill:#fff;stroke-width:6.63268"/><path id="path41" d="M880.636 234.03V220.1l-33.164 12.602c-.663 0-.663.663-1.326.663 0 0-113.419 69.643-115.409 70.97s-3.98 3.316-3.98 5.97v37.806l-109.438 65c-1.99.663-3.317 3.316-3.317 5.306l-.663 31.837-59.694 35.153c-3.316 1.99-1.99 6.633-1.99 9.95v72.295l-25.204-9.286c-1.327-.663-3.316-.663-4.643 0l-22.551 9.286v-72.296c0-3.98.663-7.296-2.653-9.286l-59.694-35.153-.663-31.837c0-1.99-1.327-3.98-3.317-5.306l-108.776-64.337v-39.133q0-3.979-3.98-5.969l-8.622-3.98-130.663-78.928c-.664 0-.664-.664-1.327-.664l-9.286-3.98v14.593l3.98 1.99 31.173 19.897-25.204-11.275h-.663l-9.286-5.306v488.165h5.97c1.99 0 3.316-.664 5.306-1.99s342.91-150.562 342.91-150.562S871.35 724.184 873.34 724.848s7.296 0 7.296 0V238.672l-60.357 26.531 31.836-19.898zM274.409 666.48l-51.071 22.551v-164.49l51.071 9.286zm35.817-290.511v273.93l-22.551 9.948V528.52c0-3.316-1.99-5.969-5.306-6.632l-64.337-11.276c-1.99-.663-3.98 0-5.307 1.327-1.99 1.326-2.653 3.316-2.653 5.306v177.092l-26.53 11.94v-448.37L302.93 310.97l7.296 3.98zm13.928-11.276 47.092 27.858-47.092-20.562zm35.817 183.725 27.857 3.98.663 63.01-27.857 11.94zm61.684-76.939v129.338l-22.551 9.949-.664-63.01c0-3.317-1.99-5.307-4.643-5.97l-39.132-5.97c-1.99 0-3.317 0-4.643 1.327-1.327 1.326-1.99 2.653-1.99 4.643l.663 90.867-24.54 10.613V385.918l97.5 43.112zm13.265-5.969 11.939 7.296-11.939-3.98zm33.163 115.409-11.275 5.306V555.05l11.275 1.327zm17.909-7.96-8.623 3.317v-25.204c0-2.654-1.99-4.643-4.643-4.643l-20.561-1.327c-1.327 0-2.653.663-3.316 1.327-.664.663-1.327 1.99-1.327 3.316v40.46l-12.602 5.305V483.418l51.072 17.245zm108.112 11.94-11.275-5.307v-24.54l11.275-.664zm21.888 9.948-13.265-5.97v-39.132c0-1.327-.663-2.653-1.327-3.316-.663-.664-1.99-1.327-3.316-1.327l-20.561 1.327c-2.653 0-4.643 1.99-4.643 4.643v24.54l-7.96-3.316v-72.96l51.072-16.581zm0-125.357-22.551 7.296 22.551-13.266zm72.296 157.194-27.857-12.602.663-63.674 27.858-3.98zm38.47 17.245-27.194-11.939.663-91.53c0-1.99-.663-3.317-1.99-4.644s-2.653-1.326-4.643-1.326l-39.132 5.97c-2.653.663-4.643 3.316-4.643 5.969l-.663 63.01-19.899-8.622V429.03l97.5-43.112zm0-271.94-57.041 25.204 57.04-33.826zm47.092 293.828v-133.98l51.071-8.623v164.49zm92.857-407.246v448.368l-28.52-12.602V515.918c0-1.99-1.327-3.98-2.653-5.306s-3.317-1.99-5.306-1.326L765.89 520.56c-3.317.663-5.307 3.317-5.307 6.633v132.653l-19.898-8.622-.663-335.613z" class="st1" style="fill:#fff;stroke-width:6.63268"/><path id="path51" d="M941.657 299.03c-20.562 0-37.143-16.582-37.143-37.143v-131.99H746.656c-20.561 0-37.143-16.582-37.143-37.143 0-20.562 16.582-37.143 37.143-37.143h195c20.562 0 37.144 16.581 37.144 37.143v169.133c0 20.561-16.582 37.143-37.143 37.143" class="st1" style="fill:#fff;stroke-width:6.63268"/><path id="path55" d="M302.267 828.317H107.266c-20.561 0-37.143-16.581-37.143-37.143V622.041c0-20.561 16.582-37.143 37.143-37.143s37.143 16.582 37.143 37.143v131.99h157.858c20.56 0 37.143 16.582 37.143 37.143 0 20.562-16.582 37.143-37.143 37.143" class="st1" style="fill:#fff;stroke-width:6.63268"/><path id="path59" d="M107.266 299.03c-20.561 0-37.143-16.582-37.143-37.143V92.754c0-20.562 16.582-37.143 37.143-37.143h195c20.562 0 37.144 16.581 37.144 37.143 0 20.56-16.582 37.143-37.143 37.143H144.409v131.99c0 20.561-16.582 37.143-37.143 37.143" class="st1" style="fill:#fff;stroke-width:6.63268"/><path id="path63" d="M941.657 828.317H746.656c-20.561 0-37.143-16.581-37.143-37.143 0-20.56 16.582-37.143 37.143-37.143h157.858v-131.99c0-20.561 16.581-37.143 37.143-37.143 20.56 0 37.143 16.582 37.143 37.143v169.133c0 20.562-16.582 37.143-37.143 37.143" class="st1" style="fill:#fff;stroke-width:6.63268"/></svg>
