<?xml version="1.0" encoding="UTF-8" standalone="no"?>
<!-- Created with Inkscape (http://www.inkscape.org/) -->

<svg
   width="20"
   height="20"
   viewBox="0 0 9.4591504 8.5132484"
   version="1.1"
   id="svg5"
   xmlns="http://www.w3.org/2000/svg"
   xmlns:svg="http://www.w3.org/2000/svg">
  <g
     id="layer1"
     transform="translate(-103.645,-17.54217)">
    <path
       d="m 104.5909,18.488086 v 6.62141 h 7.56734 v -5.675495 h -3.97957 l -0.94592,-0.945915 z m 3.97957,0 h 4.06072 c 0.26122,0 0.47296,0.211753 0.47296,0.472958 v 6.621412 c 0,0.261213 -0.21174,0.472957 -0.47296,0.472957 h -8.51324 c -0.2612,0 -0.47295,-0.211744 -0.47295,-0.472957 v -7.567329 c 0,-0.261205 0.21175,-0.472957 0.47295,-0.472957 h 3.5066 z"
       id="path767"
       style="stroke-width:0.472957" />
    <path
       d="m 105.64307,20.394813 1.85208,-0.79375 1.5875,0.79375 1.66767,-0.714719 c 0.0672,-0.02878 0.14494,0.0023 0.17372,0.06948 0.007,0.01647 0.0107,0.0342 0.0107,0.05211 v 4.297291 l -1.85208,0.79375 -1.5875,-0.79375 -1.66768,0.714719 c -0.0672,0.02879 -0.14492,-0.0023 -0.17371,-0.06948 -0.007,-0.01646 -0.0107,-0.03421 -0.0107,-0.05212 z m 3.70416,3.808809 1.05834,-0.453575 v -3.346482 l -1.05834,0.45357 z m -0.52916,-0.03482 v -3.314655 l -1.05834,-0.529167 v 3.314655 z m -1.5875,-0.532157 v -3.346473 l -1.05834,0.45357 v 3.346479 z"
       id="path484"
       style="fill:#000000;stroke-width:0.264583" />
  </g>
</svg>
