<svg xmlns="http://www.w3.org/2000/svg">
<symbol id="box" viewBox="0 0 24 24"><path d="M1.48 1029.842h21.04v19.04H1.48Z" style="fill:#e5e5e5;stroke:currentColor;stroke-width:.95975173;stroke-dasharray:1.91950336,.95975168" transform="translate(.05 -1027.676)"/></symbol>
<symbol id="circle" viewBox="0 0 24 24"><g transform="translate(0 -1028.362)"><circle cx="12.1" cy="1040.272" r="10.509" fill="#ebebeb"/><circle cx="12" cy="1040.362" r="10.5" fill="none" stroke="currentColor" stroke-dasharray="1.99829691 .99914846" stroke-dashoffset=".168" stroke-width=".999"/></g></symbol>
<symbol id="device-mobile-vibration" fill="none" stroke="currentColor" stroke-linecap="round" stroke-linejoin="round" stroke-width="2" viewBox="0 0 24 24"><path stroke="none" d="M0 0h24v24H0z"/><g transform="rotate(20 12 12)"><rect width="10" height="16" x="7" y="4" rx="1"/><path d="M11 5h2M12 17v.01M3 8v8M21 8v8"/></g></symbol>
<symbol id="edit" fill="none" stroke="currentColor" stroke-linecap="round" stroke-linejoin="round" stroke-width="2" viewBox="0 0 24 24"><path stroke="none" d="M0 0h24v24H0z"/><path d="M9 7H6a2 2 0 0 0-2 2v9a2 2 0 0 0 2 2h9a2 2 0 0 0 2-2v-3"/><path d="M9 15h3l8.5-8.5a1.5 1.5 0 0 0-3-3L9 12zM16 5l3 3"/></symbol>
<symbol id="eraser" fill="none" stroke="currentColor" stroke-linecap="round" stroke-linejoin="round" stroke-width="2" viewBox="0 0 24 24"><path stroke="none" d="M0 0h24v24H0z"/><path d="M19 19H8l-4-4a1 1 0 0 1 0-1.41l10-10a1 1 0 0 1 1.41 0l5 5a1 1 0 0 1 0 1.41l-9 9M18 12.3 11.7 6"/></symbol>
<symbol id="eraser-all" fill="none" stroke="currentColor" stroke-linecap="round" stroke-linejoin="round" stroke-width="2" viewBox="0 0 24 24"><path stroke="none" d="M0 0h24v24H0z"/><path d="M20.41 19H6l-4-4a1 1 0 0 1 0-1.41l10-10a1 1 0 0 1 1.41 0l5 5a1 1 0 0 1 0 1.41l-9 9"/><path d="M15 3.6a1 1 0 0 1 1.41 0l5 5a1 1 0 0 1 .41 1.4l-9 9M16 12.3 9.7 6M19.254 12.437l-1.63-1.616"/></symbol>
<symbol id="file-download" fill="currentColor" viewBox="0 0 16 16"><path d="M4 1h5v1H4a1 1 0 0 0-1 1v10a1 1 0 0 0 1 1h8a1 1 0 0 0 1-1V6h1v7a2 2 0 0 1-2 2H4a2 2 0 0 1-2-2V3a2 2 0 0 1 2-2"/><path d="M9 4.5V1l5 5h-3.5A1.5 1.5 0 0 1 9 4.5"/><path fill-rule="evenodd" d="M5.646 9.146a.5.5 0 0 1 .708 0L8 10.793l1.646-1.647a.5.5 0 0 1 .708.708l-2 2a.5.5 0 0 1-.708 0l-2-2a.5.5 0 0 1 0-.708"/><path fill-rule="evenodd" d="M8 6a.5.5 0 0 1 .5.5v4a.5.5 0 0 1-1 0v-4A.5.5 0 0 1 8 6"/></symbol>
<symbol id="file-upload" fill="currentColor" viewBox="0 0 16 16"><path d="M4 1h5v1H4a1 1 0 0 0-1 1v10a1 1 0 0 0 1 1h8a1 1 0 0 0 1-1V6h1v7a2 2 0 0 1-2 2H4a2 2 0 0 1-2-2V3a2 2 0 0 1 2-2"/><path d="M9 4.5V1l5 5h-3.5A1.5 1.5 0 0 1 9 4.5"/><path fill-rule="evenodd" d="M5.646 8.854a.5.5 0 0 0 .708 0L8 7.207l1.646 1.647a.5.5 0 0 0 .708-.708l-2-2a.5.5 0 0 0-.708 0l-2 2a.5.5 0 0 0 0 .708"/><path fill-rule="evenodd" d="M8 12a.5.5 0 0 0 .5-.5v-4a.5.5 0 0 0-1 0v4a.5.5 0 0 0 .5.5"/></symbol>
<symbol id="filter-square" fill="currentColor" viewBox="0 0 16 16"><path d="M14 1a1 1 0 0 1 1 1v12a1 1 0 0 1-1 1H2a1 1 0 0 1-1-1V2a1 1 0 0 1 1-1zM2 0a2 2 0 0 0-2 2v12a2 2 0 0 0 2 2h12a2 2 0 0 0 2-2V2a2 2 0 0 0-2-2z"/><path d="M6 11.5a.5.5 0 0 1 .5-.5h3a.5.5 0 0 1 0 1h-3a.5.5 0 0 1-.5-.5m-2-3a.5.5 0 0 1 .5-.5h7a.5.5 0 0 1 0 1h-7a.5.5 0 0 1-.5-.5m-2-3a.5.5 0 0 1 .5-.5h11a.5.5 0 0 1 0 1h-11a.5.5 0 0 1-.5-.5"/></symbol>
<symbol id="freehand" viewBox="0 0 24 24"><path d="M1.136 1030.013c-2.237 1.3 3.89 5.49 1.968 8.398-1.4 3.001-2.518 6.262-2.404 9.599.016 2.614 3.54 4.827 5.259 2.227 1.317-1.72 2.71-3.9 5.16-3.877 3.013-.123 6.461 1.533 9.107-.612 2.525-2.842-11.418-6.535 2.238-10.197 1.312-2.992-1.738-6.706-4.936-5.742-3.587 1.398-5.597 4.006-9.253 1.946-1.436-.866-5.37-2.544-7.139-1.742" style="fill:#ebebeb" transform="translate(.396 -1028.326)"/><path d="M1.136 1030.013c-2.237 1.3 3.89 5.49 1.968 8.398-1.4 3.001-2.518 6.262-2.404 9.599.016 2.614 3.54 4.827 5.259 2.227 1.317-1.72 2.71-3.9 5.16-3.877 3.013-.123 6.461 1.533 9.107-.612 2.525-2.842-11.418-6.535 2.238-10.197 1.312-2.992-1.738-6.706-4.936-5.742-3.587 1.398-5.597 4.006-9.253 1.946-1.436-.866-5.37-2.544-7.139-1.742z" style="fill:none;stroke:currentColor;stroke-width:1.20000005;stroke-dasharray:2.4,1.2" transform="translate(.396 -1028.326)"/></symbol>
<symbol id="fullscreen" fill="currentColor" viewBox="0 0 16 16"><path stroke="currentColor" d="M1.5 1a.5.5 0 0 0-.5.5v4a.5.5 0 0 1-1 0v-4A1.5 1.5 0 0 1 1.5 0h4a.5.5 0 0 1 0 1zM10 .5a.5.5 0 0 1 .5-.5h4A1.5 1.5 0 0 1 16 1.5v4a.5.5 0 0 1-1 0v-4a.5.5 0 0 0-.5-.5h-4a.5.5 0 0 1-.5-.5zM.5 10a.5.5 0 0 1 .5.5v4a.5.5 0 0 0 .5.5h4a.5.5 0 0 1 0 1h-4A1.5 1.5 0 0 1 0 14.5v-4a.5.5 0 0 1 .5-.5zm15 0a.5.5 0 0 1 .5.5v4a1.5 1.5 0 0 1-1.5 1.5h-4a.5.5 0 0 1 0-1h4a.5.5 0 0 0 .5-.5v-4a.5.5 0 0 1 .5-.5z"/></symbol>
<symbol id="fullscreen-exit" fill="currentColor" viewBox="0 0 16 16"><path stroke="currentColor" d="M5.5 0a.5.5 0 0 1 .5.5v4A1.5 1.5 0 0 1 4.5 6h-4a.5.5 0 0 1 0-1h4a.5.5 0 0 0 .5-.5v-4a.5.5 0 0 1 .5-.5zm5 0a.5.5 0 0 1 .5.5v4a.5.5 0 0 0 .5.5h4a.5.5 0 0 1 0 1h-4A1.5 1.5 0 0 1 10 4.5v-4a.5.5 0 0 1 .5-.5zM0 10.5a.5.5 0 0 1 .5-.5h4A1.5 1.5 0 0 1 6 11.5v4a.5.5 0 0 1-1 0v-4a.5.5 0 0 0-.5-.5h-4a.5.5 0 0 1-.5-.5zm10 1a1.5 1.5 0 0 1 1.5-1.5h4a.5.5 0 0 1 0 1h-4a.5.5 0 0 0-.5.5v4a.5.5 0 0 1-1 0z"/></symbol>
<symbol id="line" viewBox="0 0 24 24"><path d="m12.38 1033.8-8.775-.661 2.12 7.858" style="fill:none;stroke:currentColor;stroke-width:.7;stroke-linejoin:round;stroke-dasharray:2.44,.61;stroke-dashoffset:6.00390005" transform="matrix(1.9204 0 0 2.01316 -3.252 -2075.456)"/></symbol>
<symbol id="mActionEditCopy" viewBox="0 0 24 24"><path fill="#fff" fill-rule="evenodd" stroke="#5b5b5c" stroke-linecap="round" stroke-linejoin="round" d="M7.5 2.5h12v16h-12z"/><path fill="#f0f0f0" fill-rule="evenodd" stroke="#5b5b5c" stroke-linecap="round" stroke-linejoin="round" d="M4.5 5.5h12v16h-12z"/><g fill="none" stroke="#969696"><path d="M6 8.5h8.5M6 10.5h9.5M6 12.5h7M6 14.5h9M6 16.5h9M6 18.5h7.5"/></g></symbol>
<symbol id="mActionEditPaste" viewBox="0 0 24 24"><path fill="#f0dbb9" fill-rule="evenodd" stroke="#b37f2b" stroke-linecap="round" stroke-linejoin="round" d="M4.5 2.5h15v19h-15z"/><path fill="#fff" fill-rule="evenodd" stroke="#5b5b5c" stroke-linejoin="round" d="M6.5 19.5v-15h7l4 4v11z"/><path fill="#f0f0f0" fill-rule="evenodd" stroke="#5b5b5c" stroke-linejoin="round" d="M13.5 4.5v4h4z"/><path fill="#d5d5d5" fill-rule="evenodd" stroke="#717171" stroke-linecap="round" stroke-linejoin="round" d="M7.5 1.5h9v4h-9z"/><g fill="none" stroke="#969696"><path d="M8 9.5h6.5M8 11.5h7.5M8 13.5h5M8 15.5h7M8 17.5h7"/></g></symbol>
<symbol id="mActionInvertSelection" viewBox="0 0 24 24"><g fill-rule="evenodd"><path fill="#fce94f" stroke="#c4a000" d="M2.5 21.5V4.146L19.854 21.5z"/><path fill="#ebebeb" stroke="#898989" d="M21.5 2.5v17.354L4.146 2.5z"/></g></symbol>
<symbol id="mActionReverseLine" viewBox="0 0 24 24"><path fill="none" stroke="#8cbe8c" stroke-linecap="round" stroke-linejoin="round" stroke-width="2" d="M2.5 2.5 9 15l6-10h6"/><g fill="#bebebe" stroke="#8c8c8c"><path d="M1.5 1.5h3v3h-3zM7.5 13.5h3v3h-3zM13.5 3.5h3v3h-3zM19.5 3.5h3v3h-3z"/></g><rect width="11" height="11" x="13" y="13" fill="#3c5a6e" rx="2.011"/><path fill="#fcffff" fill-rule="evenodd" d="m14 19 9-.01v-2C23 14 22 14 18.5 14S14 14 14 17z" opacity=".3"/><g fill="none" stroke="#fff" stroke-width="1.5"><path stroke-linecap="square" d="M22.33 16.75c0-1.522-1.164-2.167-2.923-2.153-1.899-.016-2.77.434-2.77 2.186"/><path stroke-linecap="round" stroke-linejoin="round" d="m18.679 16.88-2 1.5-2-1.5"/></g><g fill="none" stroke="#fff" stroke-width="1.5"><path stroke-linecap="square" d="M14.67 20.25c0 1.522 1.164 2.167 2.923 2.153 1.899.016 2.77-.434 2.77-2.186"/><path stroke-linecap="round" stroke-linejoin="round" d="m18.321 20.12 2-1.5 2 1.5"/></g></symbol>
<symbol id="map-print" viewBox="0 0 24 24"><path d="M14.643 2a2.5 2.5 0 0 0-2.5 2.5v19.514c1.666-.003 3.333-.01 5-.01V7h58v16.992q2.5 0 5-.002V4.5a2.5 2.5 0 0 0-2.5-2.5ZM6.5 28A6.486 6.486 0 0 0 0 34.5v27C0 65.101 2.899 68 6.5 68h5.643v27.5a2.5 2.5 0 0 0 2.5 2.5h63a2.5 2.5 0 0 0 2.5-2.5V68H93.5c3.601 0 6.5-2.899 6.5-6.5v-27c0-3.601-2.899-6.5-6.5-6.5Zm83.44 6H90a4 4 0 1 1-.06 0M17.142 48h4v41h51V48h4v45h-59zm11.793 0H40.37c-.203.636-.477 1.422-1.14 1.518 2.29.285-.81 1.091-1.196 2.136.783.04 1.214-1.733 2.154-.332-.329 1.29-.735-1.108-1.355.711-1.493 1.03 1.642 2.73 1.623 2.75-.659-1.463-.534-2.64.543-3.086.612-1.193.001-2.25.316-3.697h11.688c.43.28.862.572 1.307.871 1.425 2.418-2.797 3.254-4.332 2.871-1.06.141-2.522.705-3.116 1.106-.343 1.543.379 4.351-2.164 4.666-1.999.655-3.58-3.007-4.959-1.575-2.039 1.023-.66-3.026-2.373-.908-.576-.085-1.076-2.063-.678.108-.598.126-2.075-.619-.501.517-.2 1.441-1.632-.77-2.377-.738.735-.716 3.633-.775 1.654-2.285-1.234.326-1.594-.726-.2-.5.767-1.771-1.313-1.877-1.88-2.791.224 1.27-1.629.801-2.278.156.3 1.596 2.657.865 3.73 1.797 1.246 1.415-2.089.13-.712 1.682-2.077.936-3.765-1.782-5.467-2.8-.612-1.092-.235-1.573.278-2.177m4.449 1.342a2 2 0 0 0-.145-.488.9.9 0 0 0 .145.488M65.95 48h1.483l1.996 10.74c-1.856-.972-2.508-3.253-3.594-4.535 1.39-1.22-.311-3.11.666-4.64-.26-.63-.458-1.112-.55-1.565Zm-42.416 1.375c1.379.762-1.266 1.418 0 0m10.707.29c-.748.254.385.23 0 0m-10.963.855c1.647.303 1.085 1.137-.058 1.12.012-.362-.11-.774.058-1.12m10.899.003c.997.37-.464.448 0 0m4.926 1.793c1.984.479-1.612.272 0 0m-7.87 4.414c2.073 1.034-.568 2.966-.486 1.543.3-.563-.762-1.35.486-1.543m10.791.04c.46.168-.302.227 0 0m.09.263c.445.242-.454.777 0 0m-18.023.422c.724.869 2.276-.313 2.187.732.954-1 .342 1.712.916.004.766.104-.69 1.135.705-.011 1.218-.287.413.557 1.18.185 1.06 1.763 2.088 3.76 4.32 3.84-.117 2.035-3.219 2.168-4.492 1.723.82 1.263-.633.083-.615.082-.212 1.198-3.077.156-3.482 2.02.892 1.226-.911 1.571-1.227 1.49-.846-.112-.169-3.897-.39-5.327.29-1.482-.723-4.341.898-4.738m.65.379c-1.024.035.191.722 0 0m24.19 2.978c2.527.523 3.61 2.427 5.73 3.702.669.656 1.283 1.91 2.246 2.017.868.362 2.197 1.184 3.127.022.83 1.629-1.98 2.31-2.728 1.742-1.775.188-4.01-.804-6.051-.615-.968 1.326-2.987 2.753-4.467 1.316-1.206.7-2.03 3.372-2.83 5.143-.807.161-3.77 2.752-1.523 1.213 1.783-.903-.69 1.09-1.399 1.275-1.152 1.789-3.65.866-4.978 2.025-1.468.363-3.191 2.82-2.653 3.534.561 1.105-.638.987.64 1.209-.024-.7 1.03.456.313.447 1.022.658 1.239 2.729.118.683-.751-.822-1.361 2.906-2.55.418-.127.182-1.273 2.03-1.241.342.068-.725-1.37 1.547-1.663-.031-2.038-1.323.32-3.705.215-5.412-1.017-1.663-.174-1.41-.101-2.918.99-1.227.756-2.247.59-3.906-1.707.521.432-1.49-1.233-.42-.814-.132-3.256-.186-1.812-1.194 1.115 1.118 2.472.081 3.039-.521 1.277-.305-1.411-.687-1.35.355-2.87.65-1.855-2.893-.096-3.752 1.12-.586 1.558-1.146 2.71-1.468.704.509-.571 1.3.855.408 1.657-.104-.083 2.046-.55 2.64-.187-1.732-2.92-.426-2.165.795 1.508-.683 1.748 1.285 2.805-.459.466.912-.358 1.482-.448 1.354 1.535 2.637 3.27.63 3.907-.97 1.976-.718-1.464-.72-1.877-.743-2.506.477-.227-1.963.3-2.19-1.572-.748 1.75-1.108 1.965-2.134.702.487 1.938-1.422 1.801.142.175 1.283-2.078-.293-.719 1.065-.174 1.181-.1.739.82.119-.028-1.38.928.953.778 1.33 1.162.538 2.635 2.405 4.346 2.236-2.045.366-.93 4.26 1.097 2.758.349-.841-1.433-2.215.586-1.45.59-1.215 2.075-1.463.928-3.357-.07-1.945 1.47-3.228 2.27-4.498.557-.634.322-2.019 1.248-2.252m14.373 4.096c1.71 1.535 4.266.1 6.039.785.365 2.545.095 5.232.174 7.838-1.42.557-2.582-.157-1.58-1.681-.272-1.26.643-3.78-.106-3.79-.373.712-2.145.454-1.777-.77-1.007-.361-2.83-.957-2.75-2.382M44.129 66.66c.478.48-.47.538 0 0m-.04.473c.897 1.154-1.216.894 0 0m-.093.855c.45.454-.833 1.274-.531 2.381-.932-.419.018-2.03.531-2.38zm-.443.082c.341.218-.257.17 0 0m-.328.09c.522.162-.419.49 0 0m-13.223.299c1.1.654-.98.43 0 0m-6.703.064c1.07.765 1.902.632 1.455 2.475.606.65.16-3.064 1.322-1.18.6 1.824-1.087 2.245-1.998 2.787.594-1.16.145-1.708-.748-1.959-.107-.68-.275-1.456-.031-2.123m20.87.15c.42.856-.556.366 0 0m-1.66.17c.383.285-.603.64 0 0m.339.089c.45.337-.596.193 0 0m-10.368.316c.896.01-.182.627 0 0m-.226.49c.966.431-.182.772 0 0m6.03.047c-1.113.413.65.13 0 0m-.83.604c-.642 1.097.569 1.478 0 0m-13.88 1.492c.606 1.155-1.154 1.124 0 0m2.22.056c.72 1.065-1.635.27 0 0m1.462.522a1 1 0 0 1 .316.03c1.416.455-.743 1.612-.638.911-1.187-.06-.431-.888.322-.941m-2.586.236c.105-.013.242-.01.42.012 1.388.124-.203 1.143-.627 1.397.305-.455-.53-1.318.207-1.409m-1.342.266c.713 1.209-.703.958 0 0m5.549.336c1.469.415.607 3.862-.28 2.935-.672 1.034-1.458.185-.312 1.416-1.518 1.516-3.494-.77-1.28-1.865.623-.857-1.47-1.915.7-1.695.682.119.694-.609 1.172-.791m-3.277.555c.96 1.417-.179 3.487-.909 2.798 1.295 2.366-2.733-1.215-.058-.273-.506-.616 1.375-1.554-.313-1.287-.028-.548 1.206-.89 1.28-1.238m43.863.185c-.006 1.75.208 5.813-.115 5.99-.809-1.515-1.024-2.604-.448-4.248 1.257-1.025-.46-1.338.563-1.742m-46.217 1.025c1.541.175-.624 2.006 0 0m7.65 1.622c-.77.69 1.15 1.076 0 0m4.844 2.441c.1-.008.223-.002.371.027-.672.842-1.074.032-.37-.027zm8.186 4.447c.204.744-1.27 1.053 0 0m-.526.858c.308.22-.308.22 0 0m-10.046 1.213c.629.522-.588.508 0 0m2.12.043c.67.592-.438.348 0 0" style="color:#000;overflow:visible;fill:#000;stroke:none;stroke-width:3.93344;stroke-linecap:round;stroke-linejoin:round;stroke-miterlimit:4;stroke-dasharray:none;stroke-dashoffset:20;stroke-opacity:1"/></symbol>
<symbol id="pencil" fill="none" stroke="currentColor" stroke-linecap="round" stroke-linejoin="round" stroke-width="2" viewBox="0 0 24 24"><path stroke="none" d="M0 0h24v24H0z"/><path d="M4 20h4L18.5 9.5a1.5 1.5 0 0 0-4-4L4 16zM13.5 6.5l4 4"/></symbol>
<symbol id="point" viewBox="0 0 24 24"><g transform="translate(5.382 -1022.62)"><ellipse cx="6.227" cy="1034.8" rx="2.532" ry="2.558" style="fill:currentColor;stroke:currentColor;stroke-width:.45078;stroke-linejoin:round;stroke-dashoffset:5.06459999"/></g></symbol>
<symbol id="polygon" viewBox="0 0 24 24"><path fill="#e5e5e5" d="m.758.64 4.23 10.86.733 2.948.087 2.228 16.163 5.051-3.22-11.048 4.04-9.723-10.83 4.017z"/><path fill="none" stroke="currentColor" stroke-dasharray="4 1" d="m.758.64 4.23 10.86.82 5.176 16.163 5.051-3.22-11.048 4.04-9.723-10.695 4.106z"/></symbol>
<symbol id="refresh" fill="none" stroke="currentColor" stroke-linecap="round" stroke-linejoin="round" stroke-width="2" viewBox="0 0 24 24"><path stroke="none" d="M0 0h24v24H0z"/><path d="M20 11A8.1 8.1 0 0 0 4.5 9M4 4v5h5M4 13a8.1 8.1 0 0 0 15.5 2m.5 5v-5h-5"/></symbol>
<symbol id="rotate" fill="currentColor" stroke="currentColor" viewBox="0 0 100 100"><path d="M80 4a1 1 0 0 0-1 1L62 16a1 1 0 0 0 0 1l8 19a1 1 0 0 0 2 0l3-11a23 23 0 0 1 16 17c1 9-1 17-8 22a1 1 0 0 0 0 2l3 9h1c10-7 15-23 12-34a32 32 0 0 0-22-25l4-10a1 1 0 0 0-1-2ZM24 34a4 4 0 0 0-3 2L0 79a4 4 0 0 0 3 5l75 11a4 4 0 0 0 4-5L68 47a4 4 0 0 0-3-3L25 34a4 4 0 0 0-1 0Zm2 7 36 10 12 36L9 77z"/><path d="m42 11 1 5 10-3-2-5zm11 8h5l1-10h-5zm-25-3 1 4 10-3-2-4zm-15 4 2 5 9-3-1-5zm37 13 5 1 2-10h-5zM7 36l5 1 3-9-5-2Zm41 12 5 1 2-10-5-1ZM3 50l5 2 3-10-5-1Zm43 13 5 1 1-10-5-1ZM0 63v2h1l3 1 2-4 1-5-5-2Zm8 6 9 4 2-4-9-5zm36 9 5 1 1-10-5-1zm-22-3 9 5 2-5-9-4zm13 7 9 4 1-2h3l-2-1v-1l-9-5z"/></symbol>
<symbol id="save" fill="currentColor" viewBox="0 0 16 16"><path d="M2 1a1 1 0 0 0-1 1v12a1 1 0 0 0 1 1h12a1 1 0 0 0 1-1V2a1 1 0 0 0-1-1H9.5a1 1 0 0 0-1 1v7.293l2.646-2.647a.5.5 0 0 1 .708.708l-3.5 3.5a.5.5 0 0 1-.708 0l-3.5-3.5a.5.5 0 1 1 .708-.708L7.5 9.293V2a2 2 0 0 1 2-2H14a2 2 0 0 1 2 2v12a2 2 0 0 1-2 2H2a2 2 0 0 1-2-2V2a2 2 0 0 1 2-2h2.5a.5.5 0 0 1 0 1z"/></symbol>
<symbol id="scaling" fill="currentColor" stroke="currentColor" viewBox="0 0 100 100"><path d="m37.62 5.028-.337.284-4.039 4.068 3.547 3.523L39.875 9.8l2.846.596 1.025-4.893-4.176-.877Zm9.995 6.393 9.787 2.053 1.026-4.895-9.787-2.05zm14.68 3.078 9.787 2.05 1.025-4.892-9.787-2.053zm-39.623 5.522 3.547 3.523 7.049-7.094-3.547-3.523zm-10.57 10.642 3.546 3.524 7.047-7.094-3.547-3.524zM1.529 41.306l3.55 3.523 7.046-7.096-3.547-3.523Zm70.977 4.027 3.91 3.115 3.44-4.387-1.118-6.55zM.947 48.319l5.617 8.274 4.137-2.809-5.617-8.273Zm62.211 8.744 3.91 3.116 6.233-7.82-3.91-3.116zM9.373 60.73l5.62 8.272 4.134-2.809-5.617-8.271zm44.438 8.067 3.91 3.115 6.232-7.82-3.91-3.117zM17.8 73.138l5.617 8.273 4.137-2.808-5.617-8.274zm26.662 7.388 3.91 3.116 6.232-7.82-3.91-3.116zm-18.236 5.022 5.617 8.273 4.136-2.81-5.617-8.272zm8.888 6.709 3.91 3.117 6.233-7.822-3.91-3.115z"/><path d="M22.672 20.02a3.5 3.5 0 0 0-2.506 1.034L-.514 41.872a3.5 3.5 0 0 0-.412 4.434L18 74.176a3.5 3.5 0 0 0 5.633.216l33.494-42.038a3.5 3.5 0 0 0-2.018-5.605l-31.742-6.654a3.5 3.5 0 0 0-.695-.074zm1.121 7.317 24.32 5.098-26.992 33.877L6.484 44.759ZM78.734 7.668l2.61 11.396-18.145 4.154 2.705 11.816L84.05 30.88l2.609 11.396L100 21.011Z"/></symbol>
<symbol id="split" fill="currentColor" stroke="currentColor" viewBox="0 0 100 100"><path d="M5 1 0 6l9 9 5-4Zm14 14-5 5 9 9 5-4zm14 14-5 5 9 10 5-5z"/><path d="M43 9a6 6 0 0 0-3 0l13 43L9 42c-1 4 2 10 8 12l38 8 4 11c-4 0-7 3-8 6v10l5 8c3 2 6 3 9 2 13-5 3-27 0-35 10 2 32 10 35-3 1-3-1-6-3-8l-8-5c-3-1-6-1-9 1-3 1-7 4-6 8l-11-3-11-38c-2-3-6-6-9-7Zm45 45c2 0 4 1 5 3l1 3-2 2h-6c-2 0-4-2-5-3s-2-2-1-3l2-2zM60 79l2 1 3 5v6l-2 2-3-1c-1-1-3-3-3-5v-6l2-2a2 2 0 0 1 1 0z"/></symbol>
<symbol id="text" viewBox="0 0 24 24"><text xml:space="preserve" x="2.323" y="15.977" style="font-style:normal;font-variant:normal;font-weight:400;font-stretch:normal;font-size:12px;line-height:125%;font-family:FontAwesome;text-align:start;letter-spacing:0;word-spacing:0;writing-mode:lr-tb;text-anchor:start;fill:currentColor;fill-opacity:1;stroke:none;stroke-width:1px;stroke-linecap:butt;stroke-linejoin:miter;stroke-opacity:1"><tspan x="2.323" y="15.977">Abc</tspan></text></symbol>
<symbol id="rule" fill="none" stroke="currentColor" stroke-linecap="round" stroke-linejoin="round" stroke-width="2" viewBox="0 0 24 24"><path stroke="none" d="M0 0h24v24H0z"/><path d="m17 3 4 4L7 21l-4-4zm-1 4-1.5-1.5M13 10l-1.5-1.5M10 13l-1.5-1.5M7 16l-1.5-1.5"/></symbol>
</svg>