<?xml version="1.0" encoding="UTF-8" standalone="no"?>
<svg
   xmlns:dc="http://purl.org/dc/elements/1.1/"
   xmlns:cc="http://creativecommons.org/ns#"
   xmlns:rdf="http://www.w3.org/1999/02/22-rdf-syntax-ns#"
   xmlns:svg="http://www.w3.org/2000/svg"
   xmlns="http://www.w3.org/2000/svg"
   xmlns:sodipodi="http://sodipodi.sourceforge.net/DTD/sodipodi-0.dtd"
   xmlns:inkscape="http://www.inkscape.org/namespaces/inkscape"
   id="Livello_1"
   version="1.1"
   viewBox="0 0 24 24"
   xml:space="preserve"
   sodipodi:docname="paste.svg"
   width="24"
   height="24"
   inkscape:version="0.92.5 (2060ec1f9f, 2020-04-08)"><metadata
     id="metadata23"><rdf:RDF><cc:Work
         rdf:about=""><dc:format>image/svg+xml</dc:format><dc:type
           rdf:resource="http://purl.org/dc/dcmitype/StillImage" /><dc:title></dc:title></cc:Work></rdf:RDF></metadata><defs
     id="defs21" /><sodipodi:namedview
     pagecolor="#ffffff"
     bordercolor="#666666"
     borderopacity="1"
     objecttolerance="10"
     gridtolerance="10"
     guidetolerance="10"
     inkscape:pageopacity="0"
     inkscape:pageshadow="2"
     inkscape:window-width="1866"
     inkscape:window-height="1136"
     id="namedview19"
     showgrid="false"
     inkscape:zoom="26.700352"
     inkscape:cx="12.71754"
     inkscape:cy="12.302348"
     inkscape:window-x="1974"
     inkscape:window-y="27"
     inkscape:window-maximized="1"
     inkscape:current-layer="Livello_1" /><path
     d="M 17.440727,22.940271 H 3.47327 c -0.7914892,0 -1.3967457,-0.605256 -1.3967457,-1.396744 V 5.7137411 c 0,-0.7914893 0.6052565,-1.3967457 1.3967457,-1.3967457 h 13.967457 c 0.791489,0 1.396746,0.6052564 1.396746,1.3967457 V 21.543527 c 0,0.74493 -0.651815,1.396744 -1.396746,1.396744 z M 3.938852,21.077944 H 16.975145 V 6.1793229 H 3.938852 Z"
     id="path2"
     inkscape:connector-curvature="0"
     style="stroke-width:0.46558192;fill:#666666" /><path
     d="m 20.6998,19.681198 c -0.51214,0 -0.931163,-0.419024 -0.931163,-0.931163 V 3.3858315 H 6.2667613 c -0.5121398,0 -0.9311636,-0.4190237 -0.9311636,-0.9311637 0,-0.5121402 0.4190238,-0.9311638 0.9311636,-0.9311638 H 20.047986 c 0.744931,0 1.582978,0.5586981 1.582978,1.3967456 V 18.750035 c 0,0.512139 -0.419024,0.931163 -0.931164,0.931163 z M 20.001428,3.3858315 Z"
     id="path4"
     inkscape:connector-curvature="0"
     style="stroke-width:0.46558192;fill:#666666" /><g
     id="g6"
     transform="translate(0,-76)" /><g
     id="g8"
     transform="translate(0,-76)" /><g
     id="g10"
     transform="translate(0,-76)" /><g
     id="g12"
     transform="translate(0,-76)" /><g
     id="g14"
     transform="translate(0,-76)" /><g
     id="g16"
     transform="translate(0,-76)" /></svg>