<?xml version="1.0" encoding="UTF-8" standalone="no"?>
<svg xmlns="http://www.w3.org/2000/svg" class="icon icon-tabler icon-tabler-eraser-all" width="24" height="24" viewBox="0 0 24 24" stroke-width="2" stroke="currentColor" fill="none" stroke-linecap="round" stroke-linejoin="round">
  <path stroke="none" d="M0 0h24v24H0z"/>
  <path d="M 20.41,19 H 6 L 2,15 C 1.6122764,14.609963 1.6122764,13.980037 2,13.59 l 10,-10 c 0.390037,-0.3877236 1.019963,-0.3877236 1.41,0 l 5,5 c 0.387724,0.3900375 0.387724,1.0199625 0,1.41 l -9,9"/>
  <path d="m 15,3.6 c 0.390037,-0.3877236 1.019963,-0.3877236 1.41,0 l 5,5 c 0.515269,0.2607417 0.703209,0.9024897 0.41,1.4 l -9,9"/>
  <path d="M 16,12.3 9.7,6"/>
  <path d="M 19.254106,12.436927 17.624342,10.821262"/>
</svg>
