<?xml version="1.0" encoding="UTF-8" standalone="no"?>
<svg
   xmlns:dc="http://purl.org/dc/elements/1.1/"
   xmlns:cc="http://creativecommons.org/ns#"
   xmlns:rdf="http://www.w3.org/1999/02/22-rdf-syntax-ns#"
   xmlns:svg="http://www.w3.org/2000/svg"
   xmlns="http://www.w3.org/2000/svg"
   id="svg12"
   version="1.1"
   width="24"
   height="24">
  <metadata
     id="metadata18">
    <rdf:RDF>
      <cc:Work
         rdf:about="">
        <dc:format>image/svg+xml</dc:format>
        <dc:type
           rdf:resource="http://purl.org/dc/dcmitype/StillImage" />
        <dc:title></dc:title>
      </cc:Work>
    </rdf:RDF>
  </metadata>
  <defs
     id="defs16" />
  <g
     id="g10"
     transform="translate(0.3955004,-1028.3262)">
    <path
       style="fill:#ebebeb"
       id="path2"
       d="m 1.1364216,1030.0126 c -2.237601,1.3008 3.8896384,5.4906 1.9674915,8.3984 -1.3990735,3.001 -2.51776726,6.2623 -2.4036758,9.5985 0.0159939,2.6146 3.5401896,4.8272 5.2587602,2.2272 1.3167158,-1.7194 2.7091903,-3.8997 5.1595055,-3.8763 3.013784,-0.1235 6.461621,1.5325 9.107356,-0.6126 2.525558,-2.8416 -11.4181656,-6.5347 2.238618,-10.1965 1.311373,-2.9919 -1.738346,-6.7068 -4.936741,-5.7421 -3.586821,1.3974 -5.596346,4.0061 -9.2530467,1.9457 -1.4354323,-0.8662 -5.3693265,-2.5441 -7.1382677,-1.7423 z" />
    <path
       style="fill:none;stroke:currentColor;stroke-width:1.20000005;stroke-dasharray:2.4, 1.2"
       id="path6"
       d="m 1.1364216,1030.0126 c -2.237601,1.3008 3.8896384,5.4906 1.9674915,8.3984 -1.3990735,3.001 -2.51776724,6.2623 -2.40367578,9.5985 0.0159939,2.6146 3.54018958,4.8272 5.25876018,2.2272 1.3167158,-1.7194 2.7091903,-3.8997 5.1595055,-3.8763 3.013784,-0.1235 6.461621,1.5325 9.107356,-0.6126 2.525558,-2.8416 -11.4181656,-6.5347 2.238618,-10.1965 1.311373,-2.9919 -1.738346,-6.7068 -4.936741,-5.7421 -3.586821,1.3974 -5.596346,4.0061 -9.2530467,1.9457 -1.4354323,-0.8662 -5.3693265,-2.5441 -7.1382677,-1.7423 z" />
  </g>
</svg>
