<svg xmlns="http://www.w3.org/2000/svg" width="100" height="100"><path d="M14.643 2a2.5 2.5 0 0 0-2.5 2.5v19.514c1.666-.003 3.333-.01 5-.01V7h58v16.992c1.666 0 3.333 0 5-.002V4.5a2.5 2.5 0 0 0-2.5-2.5ZM6.5 28A6.486 6.486 0 0 0 0 34.5v27C0 65.101 2.899 68 6.5 68h5.643v27.5a2.5 2.5 0 0 0 2.5 2.5h63a2.5 2.5 0 0 0 2.5-2.5V68H93.5c3.601 0 6.5-2.899 6.5-6.5v-27c0-3.601-2.899-6.5-6.5-6.5Zm83.44 6H90a4 4 0 1 1-.06 0zM17.142 48h4v41h51V48h4v45h-59zm11.793 0H40.37c-.203.636-.477 1.422-1.14 1.518 2.29.285-.81 1.091-1.196 2.136.783.04 1.214-1.733 2.154-.332-.329 1.29-.735-1.108-1.355.711-1.493 1.03 1.642 2.73 1.623 2.75-.659-1.463-.534-2.64.543-3.086.612-1.193.001-2.25.316-3.697h11.688c.43.28.862.572 1.307.871 1.425 2.418-2.797 3.254-4.332 2.871-1.06.141-2.522.705-3.116 1.106-.343 1.543.379 4.351-2.164 4.666-1.999.655-3.58-3.007-4.959-1.575-2.039 1.023-.66-3.026-2.373-.908-.576-.085-1.076-2.063-.678.108-.598.126-2.075-.619-.501.517-.2 1.441-1.632-.77-2.377-.738.735-.716 3.633-.775 1.654-2.285-1.234.326-1.594-.726-.2-.5.767-1.771-1.313-1.877-1.88-2.791.224 1.27-1.629.801-2.278.156.3 1.596 2.657.865 3.73 1.797 1.246 1.415-2.089.13-.712 1.682-2.077.936-3.765-1.782-5.467-2.8-.612-1.092-.235-1.573.278-2.177Zm4.449 1.342a1.992 1.992 0 0 0-.145-.488.892.892 0 0 0 .145.488zM65.95 48h1.483l1.996 10.74c-1.856-.972-2.508-3.253-3.594-4.535 1.39-1.22-.311-3.11.666-4.64-.26-.63-.458-1.112-.55-1.565Zm-42.416 1.375c1.379.762-1.266 1.418 0 0zm10.707.29c-.748.254.385.23 0 0zm-10.963.855c1.647.303 1.085 1.137-.058 1.12.012-.362-.11-.774.058-1.12zm10.899.003c.997.37-.464.448 0 0zm4.926 1.793c1.984.479-1.612.272 0 0zm-7.87 4.414c2.073 1.034-.568 2.966-.486 1.543.3-.563-.762-1.35.486-1.543zm10.791.04c.46.168-.302.227 0 0zm.09.263c.445.242-.454.777 0 0zm-18.023.422c.724.869 2.276-.313 2.187.732.954-1 .342 1.712.916.004.766.104-.69 1.135.705-.011 1.218-.287.413.557 1.18.185 1.06 1.763 2.088 3.76 4.32 3.84-.117 2.035-3.219 2.168-4.492 1.723.82 1.263-.633.083-.615.082-.212 1.198-3.077.156-3.482 2.02.892 1.226-.911 1.571-1.227 1.49-.846-.112-.169-3.897-.39-5.327.29-1.482-.723-4.341.898-4.738zm.65.379c-1.024.035.191.722 0 0zm24.19 2.978c2.527.523 3.61 2.427 5.73 3.702.669.656 1.283 1.91 2.246 2.017.868.362 2.197 1.184 3.127.022.83 1.629-1.98 2.31-2.728 1.742-1.775.188-4.01-.804-6.051-.615-.968 1.326-2.987 2.753-4.467 1.316-1.206.7-2.03 3.372-2.83 5.143-.807.161-3.77 2.752-1.523 1.213 1.783-.903-.69 1.09-1.399 1.275-1.152 1.789-3.65.866-4.978 2.025-1.468.363-3.191 2.82-2.653 3.534.561 1.105-.638.987.64 1.209-.024-.7 1.03.456.313.447 1.022.658 1.239 2.729.118.683-.751-.822-1.361 2.906-2.55.418-.127.182-1.273 2.03-1.241.342.068-.725-1.37 1.547-1.663-.031-2.038-1.323.32-3.705.215-5.412-1.017-1.663-.174-1.41-.101-2.918.99-1.227.756-2.247.59-3.906-1.707.521.432-1.49-1.233-.42-.814-.132-3.256-.186-1.812-1.194 1.115 1.118 2.472.081 3.039-.521 1.277-.305-1.411-.687-1.35.355-2.87.65-1.855-2.893-.096-3.752 1.12-.586 1.558-1.146 2.71-1.468.704.509-.571 1.3.855.408 1.657-.104-.083 2.046-.55 2.64-.187-1.732-2.92-.426-2.165.795 1.508-.683 1.748 1.285 2.805-.459.466.912-.358 1.482-.448 1.354 1.535 2.637 3.27.63 3.907-.97 1.976-.718-1.464-.72-1.877-.743-2.506.477-.227-1.963.3-2.19-1.572-.748 1.75-1.108 1.965-2.134.702.487 1.938-1.422 1.801.142.175 1.283-2.078-.293-.719 1.065-.174 1.181-.1.739.82.119-.028-1.38.928.953.778 1.33 1.162.538 2.635 2.405 4.346 2.236-2.045.366-.93 4.26 1.097 2.758.349-.841-1.433-2.215.586-1.45.59-1.215 2.075-1.463.928-3.357-.07-1.945 1.47-3.228 2.27-4.498.557-.634.322-2.019 1.248-2.252zm14.373 4.096c1.71 1.535 4.266.1 6.039.785.365 2.545.095 5.232.174 7.838-1.42.557-2.582-.157-1.58-1.681-.272-1.26.643-3.78-.106-3.79-.373.712-2.145.454-1.777-.77-1.007-.361-2.83-.957-2.75-2.382zM44.129 66.66c.478.48-.47.538 0 0zm-.04.473c.897 1.154-1.216.894 0 0zm-.093.855c.45.454-.833 1.274-.531 2.381-.932-.419.018-2.03.531-2.38zm-.443.082c.341.218-.257.17 0 0zm-.328.09c.522.162-.419.49 0 0zm-13.223.299c1.1.654-.98.43 0 0zm-6.703.064c1.07.765 1.902.632 1.455 2.475.606.65.16-3.064 1.322-1.18.6 1.824-1.087 2.245-1.998 2.787.594-1.16.145-1.708-.748-1.959-.107-.68-.275-1.456-.031-2.123zm20.87.15c.42.856-.556.366 0 0zm-1.66.17c.383.285-.603.64 0 0zm.339.089c.45.337-.596.193 0 0zm-10.368.316c.896.01-.182.627 0 0zm-.226.49c.966.431-.182.772 0 0zm6.03.047c-1.113.413.65.13 0 0zm-.83.604c-.642 1.097.569 1.478 0 0zm-13.88 1.492c.606 1.155-1.154 1.124 0 0zm2.22.056c.72 1.065-1.635.27 0 0zm1.462.522a.93.93 0 0 1 .316.03c1.416.455-.743 1.612-.638.911-1.187-.06-.431-.888.322-.941zm-2.586.236c.105-.013.242-.01.42.012 1.388.124-.203 1.143-.627 1.397.305-.455-.53-1.318.207-1.409zm-1.342.266c.713 1.209-.703.958 0 0zm5.549.336c1.469.415.607 3.862-.28 2.935-.672 1.034-1.458.185-.312 1.416-1.518 1.516-3.494-.77-1.28-1.865.623-.857-1.47-1.915.7-1.695.682.119.694-.609 1.172-.791zm-3.277.555c.96 1.417-.179 3.487-.909 2.798 1.295 2.366-2.733-1.215-.058-.273-.506-.616 1.375-1.554-.313-1.287-.028-.548 1.206-.89 1.28-1.238zm43.863.185c-.006 1.75.208 5.813-.115 5.99-.809-1.515-1.024-2.604-.448-4.248 1.257-1.025-.46-1.338.563-1.742zm-46.217 1.025c1.541.175-.624 2.006 0 0zm7.65 1.622c-.77.69 1.15 1.076 0 0zm4.844 2.441c.1-.008.223-.002.371.027-.672.842-1.074.032-.37-.027zm8.186 4.447c.204.744-1.27 1.053 0 0zm-.526.858c.308.22-.308.22 0 0zm-10.046 1.213c.629.522-.588.508 0 0zm2.12.043c.67.592-.438.348 0 0z" style="color:#000;overflow:visible;fill:black;stroke:none;stroke-width:3.93344;stroke-linecap:round;stroke-linejoin:round;stroke-miterlimit:4;stroke-dasharray:none;stroke-dashoffset:20;stroke-opacity:1"/></svg>
