<svg xmlns="http://www.w3.org/2000/svg" viewBox="0 0 100 100" fill="currentColor" stroke="currentColor"><path d="M80 4a1 1 0 0 0-1 1L62 16a1 1 0 0 0 0 1l8 19a1 1 0 0 0 2 0l3-11a23 23 0 0 1 16 17c1 9-1 17-8 22a1 1 0 0 0 0 2l3 9h1c10-7 15-23 12-34a32 32 0 0 0-22-25l4-10a1 1 0 0 0-1-2ZM24 34a4 4 0 0 0-3 2L0 79a4 4 0 0 0 3 5l75 11a4 4 0 0 0 4-5L68 47a4 4 0 0 0-3-3L25 34a4 4 0 0 0-1 0Zm2 7 36 10 12 36L9 77z"/><path d="m42 11 1 5 10-3-2-5zm11 8h5l1-10h-5zm-25-3 1 4 10-3-2-4zm-15 4 2 5 9-3-1-5zm37 13 5 1 2-10h-5zM7 36l5 1 3-9-5-2Zm41 12 5 1 2-10-5-1ZM3 50l5 2 3-10-5-1Zm43 13 5 1 1-10-5-1ZM0 63v2h1l3 1 2-4 1-5-5-2Zm8 6 9 4 2-4-9-5zm36 9 5 1 1-10-5-1zm-22-3 9 5 2-5-9-4zm13 7 9 4 1-2h3l-2-1v-1l-9-5z"/></svg>
