<svg xmlns="http://www.w3.org/2000/svg" viewBox="0 0 100 100" fill="currentColor" stroke="currentColor"><path d="M 37.619141,5.0283201 37.283203,5.3115232 33.244141,9.3798826 36.791016,12.903321 39.875,9.7998046 42.720703,10.395508 43.746094,5.5029296 39.570312,4.6259764 Z m 9.996093,6.3925789 9.78711,2.052734 1.02539,-4.8945314 -9.787109,-2.050781 z m 14.679688,3.078125 9.787109,2.050781 1.025391,-4.892578 -9.78711,-2.0527354 z m -39.623047,5.521484 3.546875,3.523437 7.048828,-7.09375 -3.546875,-3.523437 z m -10.570312,10.642578 3.546875,3.523438 7.046874,-7.09375 -3.546875,-3.523438 z M 1.5292973,41.305664 5.0781254,44.829102 12.125001,37.733399 8.5781254,34.209961 Z m 70.9765617,4.027344 3.910157,3.115234 3.43968,-4.387261 -1.117415,-6.550239 z M 0.947266,48.319336 6.5644535,56.592774 10.701173,53.78418 5.0839847,45.510742 Z m 62.210937,8.744141 3.910156,3.115234 6.232422,-7.820312 -3.910156,-3.115235 z m -53.7851555,3.666015 5.6191395,8.271485 4.134766,-2.808594 -5.617187,-8.271484 z m 44.4374995,8.066407 3.910156,3.115234 6.232422,-7.820312 -3.910156,-3.117188 z m -36.009766,4.341796 5.617188,8.273438 4.136718,-2.808594 -5.617187,-8.273437 z m 26.66211,7.388672 3.910156,3.115235 6.232422,-7.820313 -3.910157,-3.115234 z m -18.236329,5.021485 5.617188,8.273437 4.136719,-2.810547 -5.617188,-8.271484 z m 8.888672,6.708984 3.910157,3.117188 6.232421,-7.822266 -3.910156,-3.115234 z"/><path d="m 22.671875,20.02051 a 3.50035,3.50035 0 0 0 -2.505859,1.033203 L -0.5136721,41.872072 a 3.50035,3.50035 0 0 0 -0.4121094,4.433594 L 18,74.17676 a 3.50035,3.50035 0 0 0 5.632812,0.214843 L 57.126953,32.354494 A 3.50035,3.50035 0 0 0 55.109375,26.749025 L 23.367188,20.094728 a 3.50035,3.50035 0 0 0 -0.695313,-0.07422 z m 1.121094,7.316406 24.320312,5.097656 L 21.121094,66.311525 6.4843747,44.758791 Z"/><path d="M 78.734132,7.6681523 81.343246,19.064224 63.199069,23.218305 65.904346,35.034406 84.048526,30.880327 86.657635,42.2764 100,21.010525 Z"/></svg>
